<svg width="500" height="500" viewBox="0 0 500 500" fill="none" xmlns="http://www.w3.org/2000/svg">
<g clip-path="url(#clip0_796_35)">
<rect width="500" height="500" fill="black"/>
<path d="M203.5 423C183.5 423 166 418.667 151 410C136 401 129.333 389.333 131 375C133.333 363.667 137.667 352.167 144 340.5C150.667 328.5 155.833 322.5 159.5 322.5C161.5 322.5 162.667 323.833 163 326.5C163.667 329.167 164 333.5 164 339.5C164.333 345.167 165 350 166 354C168 364 176.5 372.667 191.5 380C206.833 387.333 222.833 391 239.5 391C255.833 391 271.167 387.333 285.5 380C300.167 372.333 309.667 361.5 314 347.5C317.333 337.167 316.333 326.667 311 316C305.667 305 297.833 295.167 287.5 286.5C277.167 277.5 266 268 254 258C242 247.667 230.833 237.833 220.5 228.5C210.5 219.167 202.833 208.667 197.5 197C192.5 185 191.667 173 195 161C198 150 206.167 137.833 219.5 124.5C232.833 111.167 245 103.5 256 101.5C272 97.5 289.833 95.5 309.5 95.5C334.5 95.5 354.667 99.1667 370 106.5C385.667 113.833 391.333 124.667 387 139C384 148.667 380.333 157.167 376 164.5C372 171.833 368.5 175.5 365.5 175.5C362.5 175.5 358.667 172.667 354 167C349.333 161 344.167 154.5 338.5 147.5C332.833 140.5 323.167 134.167 309.5 128.5C296.167 122.5 280.167 119.5 261.5 119.5C253.167 119.5 245.667 121.667 239 126C232.667 130 228.333 135.5 226 142.5C223 152.167 225.833 162.5 234.5 173.5C243.5 184.5 255 195.5 269 206.5C283.333 217.167 297.5 228.5 311.5 240.5C325.5 252.5 336.333 266.167 344 281.5C351.667 296.833 353 312.5 348 328.5C340.667 353.5 321.667 375.5 291 394.5C260.667 413.5 231.5 423 203.5 423Z" fill="url(#paint0_linear_796_35)"/>
</g>
<defs>
<linearGradient id="paint0_linear_796_35" x1="347" y1="44" x2="347" y2="544" gradientUnits="userSpaceOnUse">
<stop offset="0.262963" stop-color="white"/>
<stop offset="0.502963" stop-color="#A1FFAF"/>
</linearGradient>
<clipPath id="clip0_796_35">
<rect width="500" height="500" fill="white"/>
</clipPath>
</defs>
</svg>
